<?xml version="1.0" encoding="UTF-8" standalone="no"?>
<svg
   viewBox="0 0 362.99997 258.00073"
   version="1.1"
   id="svg33"
   width="362.99997"
   height="258.00073"
   xmlns:xlink="http://www.w3.org/1999/xlink"
   xmlns="http://www.w3.org/2000/svg"
   xmlns:svg="http://www.w3.org/2000/svg">
  <defs
     id="defs29">
    <symbol
       id="d"
       viewBox="0 0 196 196">
      <circle
         cx="98"
         cy="98"
         r="40"
         fill="url(#b)"
         stroke="#f8af18"
         stroke-miterlimit="10"
         stroke-width="4"
         id="circle2" />
      <path
         fill="none"
         stroke="#fbbf24"
         stroke-linecap="round"
         stroke-miterlimit="10"
         stroke-width="12"
         d="M 98,31.4 V 6 m 0,184 V 164.6 M 145.1,51 163.1,33.1 M 33,163 51,145.1 M 51,51 33,33 m 130.1,130.1 -18,-18 M 6,98 H 31.4 M 190,98 h -25.4"
         id="path4">
        <animateTransform
           additive="sum"
           attributeName="transform"
           dur="6s"
           repeatCount="indefinite"
           type="rotate"
           values="0 98 98; 45 98 98" />
      </path>
    </symbol>
    <symbol
       id="e"
       viewBox="0 0 350 222">
      <path
         fill="url(#a)"
         stroke="#e6effc"
         stroke-miterlimit="10"
         stroke-width="6"
         d="m 291,107 -2.5,0.1 A 83.9,83.9 0 0 0 135.6,43 56,56 0 0 0 51,91 56.6,56.6 0 0 0 51.8,100 60,60 0 0 0 63,219 l 4,-0.2 v 0.2 h 224 a 56,56 0 0 0 0,-112 z"
         id="path7" />
    </symbol>
    <symbol
       id="c"
       viewBox="0 0 363 258">
      <use
         xlink:href="#d"
         width="196"
         height="196"
         id="use10" />
      <use
         xlink:href="#e"
         width="350"
         height="222"
         transform="translate(13,36)"
         id="use12" />
    </symbol>
    <linearGradient
       id="a"
       x1="99.5"
       x2="232.60001"
       y1="30.700001"
       y2="261.39999"
       gradientUnits="userSpaceOnUse">
      <stop
         offset="0"
         stop-color="#f3f7fe"
         id="stop15" />
      <stop
         offset=".5"
         stop-color="#f3f7fe"
         id="stop17" />
      <stop
         offset="1"
         stop-color="#deeafb"
         id="stop19" />
    </linearGradient>
    <linearGradient
       id="b"
       x1="78"
       x2="118"
       y1="63.400002"
       y2="132.7"
       gradientUnits="userSpaceOnUse">
      <stop
         offset="0"
         stop-color="#fbbf24"
         id="stop22" />
      <stop
         offset=".5"
         stop-color="#fbbf24"
         id="stop24" />
      <stop
         offset="1"
         stop-color="#f59e0b"
         id="stop26" />
    </linearGradient>
  </defs>
  <use
     xlink:href="#c"
     width="363"
     height="258"
     id="use31" />
</svg>
