<?xml version="1.0" encoding="UTF-8" standalone="no"?>
<svg
   viewBox="0 0 164 245.56805"
   version="1.1"
   id="svg18"
   width="164"
   height="245.56805"
   xmlns:xlink="http://www.w3.org/1999/xlink"
   xmlns="http://www.w3.org/2000/svg"
   xmlns:svg="http://www.w3.org/2000/svg">
  <defs
     id="defs12">
    <linearGradient
       id="a"
       x1="14.8"
       x2="124.2"
       y1="42.299999"
       y2="231.7"
       gradientUnits="userSpaceOnUse">
      <stop
         offset="0"
         stop-color="#3392d6"
         id="stop2" />
      <stop
         offset=".5"
         stop-color="#3392d6"
         id="stop4" />
      <stop
         offset="1"
         stop-color="#2477b2"
         id="stop6" />
    </linearGradient>
    <symbol
       id="b"
       viewBox="0 0 164 245.6">
      <path
         fill="url(#a)"
         stroke="#2885c7"
         stroke-miterlimit="10"
         stroke-width="4"
         d="m 82,3.6 c -48.7,72 -80,117 -80,160.7 0,43.7 35.8,79.3 80,79.3 44.2,0 80,-35.5 80,-79.3 C 162,120.5 130.7,75.5 82,3.6 Z"
         id="path9">
        <animateTransform
           additive="sum"
           attributeName="transform"
           calcMode="spline"
           dur="6s"
           keySplines=".42, 0, .58, 1; .42, 0, .58, 1"
           repeatCount="indefinite"
           type="scale"
           values="1 1; 1 .9; 1 1" />
      </path>
    </symbol>
  </defs>
  <use
     xlink:href="#b"
     width="164"
     height="245.60001"
     transform="translate(0,-0.03194922)"
     id="use14" />
  <path
     fill="#ffffff"
     d="m 44.9,117.45805 q 4.8,-4.5 13.7,-4.5 8.9,0 13.6,4.5 4.8,4.4 4.8,12.4 v 8 q 0,7.8 -4.8,12.2 -4.8,4.4 -13.6,4.4 -9,0 -13.7,-4.4 -4.7,-4.4 -4.8,-12.2 v -8 q 0,-8 4.8,-12.4 z m 71.2,-1.6 a 2.8,2.8 0 0 1 -0.6,2.6 l -53,73.3 a 9.4,9.4 0 0 1 -2.8,2.8 12.3,12.3 0 0 1 -4.6,0.6 h -4.4 c -1.3,0 -2.1,-0.4 -2.5,-1.1 a 2.8,2.8 0 0 1 0.7,-2.8 l 53,-73.3 a 7,7 0 0 1 2.6,-2.7 12.7,12.7 0 0 1 4.4,-0.5 h 4.9 c 1.2,0 2,0.4 2.3,1.1 z m -57.5,7.6 q -7.7,0 -7.7,7 v 6.7 q 0,7 7.7,7 7.7,0 7.7,-7 v -6.8 q 0,-6.9 -7.7,-6.9 z m 33.4,36.4 q 4.7,-4.5 13.7,-4.5 9,0 13.6,4.5 4.8,4.5 4.8,12.4 v 8 q 0,7.8 -4.8,12.2 -4.8,4.4 -13.7,4.5 -8.9,0 -13.6,-4.4 -4.7,-4.4 -4.8,-12.3 v -8 q 0,-8 4.8,-12.4 z m 13.6,6.1 q -7.6,0 -7.6,7 v 6.6 q 0,7 7.6,7 7.6,0 7.7,-7 v -6.7 q 0,-6.9 -7.7,-6.9 z"
     id="path16" />
</svg>
