<?xml version="1.0" encoding="UTF-8" standalone="no"?>
<svg
   id="Layer_1"
   data-name="Layer 1"
   viewBox="0 0 101.7567 122.86399"
   version="1.1"
   width="101.75671"
   height="122.86399"
   xmlns="http://www.w3.org/2000/svg"
   xmlns:svg="http://www.w3.org/2000/svg">
  <defs
     id="defs4">
    <style
       id="style2">.cls-1{fill:#42bdff;}.cls-1,.cls-2{fill-rule:evenodd;}.cls-2{fill:#fff;}</style>
  </defs>
  <title
     id="title6">water-color</title>
  <path
     class="cls-1"
     d="m 63.936704,10.105116 c 7.65,32.75 37.819996,56.56 37.819996,75.88 0,46.840004 -68.609996,49.070004 -75.099996,6.64 a 34.53,34.53 0 0 1 -5.42,-1.12 30.87,30.87 0 0 1 -10.24,-5.15 c -7.0799998,-5.47 -10.31999976,-11.96 -10.89999976,-18.81 -0.68,-7.94 2.28999996,-16.24 6.89999996,-23.96 1.76,-2.94 3.3699998,-5.49 4.9999998,-8.11 6.34,-10 13.49,-21.24 16.28,-33.3099997 a 2.81,2.81 0 0 1 5.47,0 c 2.81,11.9999997 9.95,23.2699997 16.28,33.2499997 l 1.82,2.87 c 5.15,-8.6 9.73,-17.93 12.09,-28.18 z m -37.75,76.78 c 0,-0.3 0,-0.59 0,-0.9 0,-12.1 11.72,-25.82 22.39,-42.4 -1,-1.62 -2.12,-3.38 -3.25,-5.17 -5.05,-7.95 -10.59,-16.69 -14.26,-26.18 -3.69,9.55 -9.25,18.29 -14.3,26.25 -1.87,2.93 -3.66,5.75 -5,8 -3.9999998,6.79 -6.6599998,14 -6.0899998,20.64 0.46,5.34 3.05,10.44 8.7599998,14.84 a 25.48,25.48 0 0 0 8.36,4.19 27.42,27.42 0 0 0 3.37,0.77 z"
     id="path8" />
  <path
     class="cls-2"
     d="m 40.926704,80.465116 a 3.84,3.84 0 0 1 7.64,-0.69 36.87,36.87 0 0 0 3.72,13.84 24.46,24.46 0 0 0 9.54,9.860004 3.83,3.83 0 0 1 -3.83,6.61 31.86,31.86 0 0 1 -12.5,-12.900004 44.59,44.59 0 0 1 -4.57,-16.72 z"
     id="path10" />
</svg>
