<?xml version="1.0" encoding="UTF-8" standalone="no"?>
<svg
   fill="#FFFFFF"
   version="1.1"
   id="Layer_1"
   x="0px"
   y="0px"
   viewBox="0 0 122.87178 120.62172"
   xml:space="preserve"
   width="122.87177"
   height="120.62172"
   xmlns="http://www.w3.org/2000/svg"
   xmlns:svg="http://www.w3.org/2000/svg"><defs
     id="defs9" /><g
     id="g4"
     transform="translate(8.8800419e-4,8.6531351e-4)"><path
       d="m 108.91,54.03 c 1.63,-1.55 3.74,-2.31 5.85,-2.28 2.11,0.03 4.2,0.84 5.79,2.44 l 0.12,0.12 c 1.5,1.58 2.23,3.6 2.2,5.61 -0.03,2.01 -0.82,4.02 -2.37,5.55 -17.66,17.66 -35.61,35.13 -53.4,52.68 -0.05,0.07 -0.1,0.13 -0.16,0.19 -1.63,1.55 -3.76,2.31 -5.87,2.28 -2.11,-0.03 -4.21,-0.85 -5.8,-2.45 L 55.01,117.9 C 37.47,100.43 19.87,82.98 2.36,65.46 0.82,63.93 0.03,61.93 0,59.92 -0.03,57.91 0.7,55.89 2.21,54.31 l 0.15,-0.15 c 1.58,-1.57 3.66,-2.38 5.76,-2.41 2.1,-0.03 4.22,0.73 5.85,2.28 l 47.27,47.22 z m -2,-51.77 c 1.62,-1.54 3.73,-2.29 5.83,-2.26 2.11,0.03 4.2,0.84 5.79,2.44 l 0.12,0.12 c 1.5,1.57 2.23,3.6 2.21,5.61 -0.03,2.01 -0.82,4.02 -2.37,5.55 -17.29,17.29 -34.29,35.15 -51.37,52.67 -0.05,0.07 -0.11,0.14 -0.17,0.21 -1.63,1.55 -3.76,2.31 -5.87,2.28 -2.11,-0.03 -4.21,-0.85 -5.8,-2.45 C 38.33,48.94 21.44,31.36 4.51,13.83 L 4.38,13.71 C 2.84,12.18 2.06,10.18 2.03,8.17 2,6.16 2.73,4.14 4.23,2.56 L 4.38,2.41 C 5.96,0.84 8.05,0.03 10.14,0 c 2.1,-0.03 4.22,0.73 5.85,2.28 l 45.24,47.18 z"
       id="path2" /></g></svg>
