<?xml version="1.0" encoding="UTF-8" standalone="no"?>
<svg
   viewBox="0 0 384 241"
   version="1.1"
   id="svg25"
   width="384"
   height="241"
   xmlns:xlink="http://www.w3.org/1999/xlink"
   xmlns="http://www.w3.org/2000/svg"
   xmlns:svg="http://www.w3.org/2000/svg">
  <defs
     id="defs17">
    <linearGradient
       id="a"
       x1="150"
       x2="234"
       y1="119.2"
       y2="264.79999"
       gradientUnits="userSpaceOnUse">
      <stop
         offset="0"
         stop-color="#fbbf24"
         id="stop2" />
      <stop
         offset=".5"
         stop-color="#fbbf24"
         id="stop4" />
      <stop
         offset="1"
         stop-color="#f59e0b"
         id="stop6" />
    </linearGradient>
    <clipPath
       id="b">
      <path
         fill="none"
         d="M 512,306 H 304 l -35.9,-31.4 a 18.4,18.4 0 0 0 -24.2,0 L 208,306 H 0 V 0 h 512 z"
         id="path9" />
    </clipPath>
    <symbol
       id="c"
       viewBox="0 0 384 384">
      <circle
         cx="192"
         cy="192"
         r="84"
         fill="url(#a)"
         stroke="#f8af18"
         stroke-miterlimit="10"
         stroke-width="6"
         id="circle12" />
      <path
         fill="none"
         stroke="#fbbf24"
         stroke-linecap="round"
         stroke-miterlimit="10"
         stroke-width="24"
         d="M 192,61.7 V 12 m 0,360 v -49.7 m 92.2,-222.5 35,-35 M 64.8,319.2 99.9,284.1 m 0,-184.4 -35,-35 M 319.4,319.2 284.3,284.1 M 61.7,192 H 12 m 360,0 h -49.7"
         id="path14">
        <animateTransform
           additive="sum"
           attributeName="transform"
           dur="6s"
           repeatCount="indefinite"
           type="rotate"
           values="0 192 192; 45 192 192" />
      </path>
    </symbol>
  </defs>
  <g
     clip-path="url(#b)"
     id="g21"
     transform="translate(-64,-100)">
    <use
       xlink:href="#c"
       width="384"
       height="384"
       transform="translate(64,100)"
       id="use19" />
  </g>
  <path
     fill="none"
     stroke="#FFFFFF"
     stroke-linecap="round"
     stroke-linejoin="round"
     stroke-width="18"
     d="m 64,232 h 88 l 40,-36 40,36 h 88"
     id="path23" />
</svg>
