<?xml version="1.0" encoding="UTF-8" standalone="no"?>
<svg
   shape-rendering="geometricPrecision"
   text-rendering="geometricPrecision"
   image-rendering="optimizeQuality"
   fill-rule="evenodd"
   clip-rule="evenodd"
   viewBox="0 0 512.00592 511.72592"
   version="1.1"
   id="svg6"
   width="512.00592"
   height="511.72592"
   xmlns="http://www.w3.org/2000/svg"
   xmlns:svg="http://www.w3.org/2000/svg">
  <defs
     id="defs10" />
  <path
     fill="#ffc106"
     d="m 256.00296,109.28296 c 80.96,0 146.58,65.62 146.58,146.58 0,80.96 -65.62,146.58 -146.58,146.58 -80.96,0 -146.58,-65.62 -146.58,-146.58 0,-80.96 65.62,-146.58 146.58,-146.58 z m -215.959998,42.17 c -7.93,-4.36 -10.81,-14.36 -6.45,-22.29 4.36,-7.93 14.35,-10.83 22.3,-6.45 l 36.87,20.39 c 7.939998,4.36 10.819998,14.36 6.45,22.28 -4.37,7.93 -14.35,10.84 -22.29,6.46 z m 0,208.82 c -7.93,4.36 -10.81,14.36 -6.45,22.29 4.36,7.93 14.35,10.83 22.3,6.45 l 36.87,-20.39 c 7.939998,-4.36 10.819998,-14.36 6.45,-22.28 -4.37,-7.93 -14.35,-10.84 -22.29,-6.46 z m 81.169998,93.96 c -4.68,7.78 -2.17,17.89 5.62,22.58 7.78,4.68 17.89,2.17 22.58,-5.61 l 21.73,-36.1 c 4.69,-7.78 2.18,-17.89 -5.6,-22.58 -7.79,-4.69 -17.9,-2.18 -22.59,5.61 z m 117.39,40.77 c -0.17,9.04 7,16.51 16.04,16.72 9.03,0.17 16.52,-7 16.72,-16.05 l 0.76,-42.13 c 0.18,-9.03 -6.99,-16.51 -16.05,-16.71 -9.03,-0.18 -16.51,7 -16.7,16.04 z m 121.95,-23.32 c 4.36,7.92 14.36,10.8 22.29,6.44 7.93,-4.36 10.83,-14.34 6.45,-22.29 l -20.38,-36.88 c -4.37,-7.93 -14.36,-10.81 -22.3,-6.45 -7.92,4.37 -10.83,14.35 -6.45,22.3 z m 93.96,-81.18 c 7.79,4.68 17.89,2.17 22.58,-5.61 4.69,-7.78 2.18,-17.89 -5.61,-22.58 l -36.1,-21.74 c -7.79,-4.68 -17.89,-2.18 -22.58,5.61 -4.69,7.78 -2.18,17.89 5.61,22.58 z m 40.78,-117.39 c 9.03,0.18 16.51,-6.99 16.71,-16.03 0.17,-9.04 -7,-16.53 -16.05,-16.72 l -42.13,-0.76 c -9.03,-0.19 -16.51,6.99 -16.7,16.04 -0.19,9.04 6.99,16.51 16.03,16.71 z m -478.579998,-34.79 c -9.0300005,-0.17 -16.51000045,6.99 -16.71000045,16.04 -0.17,9.03 6.99999995,16.52 16.04000045,16.71 l 42.14,0.77 c 9.03,0.18 16.51,-6.99 16.7,-16.04 0.18,-9.04 -6.99,-16.52 -16.03,-16.71 z M 121.21296,57.492962 c -4.68,-7.78 -2.17,-17.89 5.62,-22.58 7.78,-4.68 17.89,-2.18 22.58,5.61 l 21.73,36.1 c 4.69,7.78 2.18,17.88 -5.6,22.58 -7.79,4.679998 -17.9,2.169998 -22.59,-5.61 z m 117.39,-40.77 c -0.17,-9.0400005 7,-16.52000047 16.04,-16.72000047 9.03,-0.17 16.52,6.99999997 16.72,16.05000047 l 0.76,42.13 c 0.18,9.03 -6.99,16.51 -16.05,16.71 -9.03,0.18 -16.51,-7 -16.7,-16.04 z m 121.95,23.32 c 4.36,-7.92 14.36,-10.8 22.29,-6.44 7.93,4.36 10.83,14.34 6.45,22.29 l -20.38,36.87 c -4.37,7.939998 -14.36,10.819998 -22.3,6.46 -7.92,-4.37 -10.83,-14.35 -6.45,-22.3 z m 93.96,81.179998 c 7.79,-4.68 17.89,-2.17 22.58,5.61 4.69,7.78 2.18,17.89 -5.61,22.57 l -36.1,21.75 c -7.79,4.68 -17.89,2.18 -22.58,-5.61 -4.69,-7.79 -2.18,-17.89 5.61,-22.58 z"
     id="path2" />
  <path
     fill="#ffd205"
     d="m 256.00296,109.28296 c 45.28,0 85.76,20.54 112.65,52.8 l -252.05,139.17 a 146.424,146.424 0 0 1 -7.18,-45.39 c 0,-80.96 65.62,-146.58 146.58,-146.58 z m -215.959998,42.17 c -7.93,-4.36 -10.81,-14.36 -6.45,-22.29 4.36,-7.93 14.35,-10.83 22.3,-6.45 l 36.87,20.39 c 7.939998,4.36 10.819998,14.36 6.45,22.28 -4.37,7.93 -14.35,10.84 -22.29,6.46 z m -23.33,86.87 c -9.0300005,-0.17 -16.51000045,6.99 -16.71000045,16.04 -0.17,9.03 6.99999995,16.52 16.04000045,16.71 l 42.14,0.77 c 9.03,0.18 16.51,-6.99 16.7,-16.04 0.18,-9.04 -6.99,-16.52 -16.03,-16.71 z M 121.21296,57.492962 c -4.68,-7.78 -2.17,-17.89 5.62,-22.58 7.78,-4.68 17.89,-2.18 22.58,5.61 l 21.73,36.1 c 4.69,7.78 2.18,17.88 -5.6,22.58 -7.79,4.679998 -17.9,2.169998 -22.59,-5.61 z m 117.39,-40.77 c -0.17,-9.0400005 7,-16.52000047 16.04,-16.72000047 9.03,-0.17 16.52,6.99999997 16.72,16.05000047 l 0.76,42.13 c 0.18,9.03 -6.99,16.51 -16.05,16.71 -9.03,0.18 -16.51,-7 -16.7,-16.04 z m 121.95,23.32 c 4.36,-7.92 14.36,-10.8 22.29,-6.44 7.93,4.36 10.83,14.34 6.45,22.29 l -20.38,36.87 c -4.37,7.939998 -14.36,10.819998 -22.3,6.46 -7.92,-4.37 -10.83,-14.35 -6.45,-22.3 z"
     id="path4" />
</svg>
